G04 EAGLE Gerber RS-274X export*
G75*
%MOMM*%
%FSLAX34Y34*%
%LPD*%
%INTop Copper*%
%IPPOS*%
%AMOC8*
5,1,8,0,0,1.08239X$1,22.5*%
G01*
%ADD10R,1.100000X1.000000*%
%ADD11R,0.350000X0.600000*%
%ADD12R,1.700000X1.300000*%
%ADD13R,0.500000X0.600000*%
%ADD14R,1.000000X0.900000*%
%ADD15R,1.350000X0.400000*%
%ADD16R,1.600000X2.100000*%
%ADD17R,1.900000X1.800000*%
%ADD18R,1.900000X1.900000*%
%ADD19R,0.740000X2.790000*%
%ADD20C,1.879600*%
%ADD21R,0.540000X0.600000*%
%ADD22R,0.600000X0.540000*%
%ADD23R,0.560000X0.600000*%
%ADD24R,2.100000X1.400000*%
%ADD25R,1.550000X2.400000*%
%ADD26R,1.200000X0.300000*%
%ADD27R,0.300000X1.200000*%
%ADD28C,0.200000*%
%ADD29R,1.625000X2.365000*%
%ADD30R,5.600000X2.100000*%
%ADD31R,0.800000X1.300000*%
%ADD32C,0.203200*%
%ADD33C,0.756400*%


D10*
X410600Y241300D03*
X427600Y241300D03*
D11*
X566250Y152400D03*
X576750Y152400D03*
X172550Y304800D03*
X183050Y304800D03*
X375750Y76200D03*
X386250Y76200D03*
X578950Y203200D03*
X589450Y203200D03*
X172550Y355600D03*
X183050Y355600D03*
X439250Y127000D03*
X449750Y127000D03*
X528150Y254000D03*
X538650Y254000D03*
D12*
X253200Y304800D03*
X280200Y304800D03*
D11*
X236050Y368300D03*
X246550Y368300D03*
D12*
X50000Y177800D03*
X77000Y177800D03*
D10*
X486800Y215900D03*
X503800Y215900D03*
D11*
X426550Y177800D03*
X437050Y177800D03*
X159850Y533400D03*
X170350Y533400D03*
D10*
X385200Y152400D03*
X402200Y152400D03*
D11*
X70950Y482600D03*
X81450Y482600D03*
X70950Y457200D03*
X81450Y457200D03*
X70950Y406400D03*
X81450Y406400D03*
X578950Y127000D03*
X589450Y127000D03*
X159850Y114300D03*
X170350Y114300D03*
X147150Y241300D03*
X157650Y241300D03*
D13*
X300300Y406400D03*
X309300Y406400D03*
X224100Y431800D03*
X233100Y431800D03*
X211400Y520700D03*
X220400Y520700D03*
D14*
X266700Y157100D03*
X266700Y173100D03*
D15*
X50800Y330200D03*
X50800Y336700D03*
X50800Y323700D03*
X50800Y343200D03*
X50800Y317200D03*
D16*
X49550Y361200D03*
X49550Y299200D03*
D17*
X24050Y368200D03*
X24050Y292200D03*
D18*
X24050Y342200D03*
X24050Y318200D03*
D19*
X38100Y68550D03*
X38100Y109250D03*
X50800Y68550D03*
X50800Y109250D03*
X63500Y68550D03*
X63500Y109250D03*
X76200Y68550D03*
X76200Y109250D03*
X88900Y68550D03*
X88900Y109250D03*
X101600Y68550D03*
X101600Y109250D03*
X114300Y68550D03*
X114300Y109250D03*
D20*
X203200Y596900D03*
X228600Y596900D03*
X254000Y596900D03*
X279400Y596900D03*
X304800Y596900D03*
X330200Y596900D03*
X355600Y596900D03*
X381000Y596900D03*
X406400Y596900D03*
X431800Y596900D03*
X457200Y596900D03*
X482600Y596900D03*
X508000Y596900D03*
X533400Y596900D03*
D21*
X567180Y304800D03*
X575820Y304800D03*
X529080Y304800D03*
X537720Y304800D03*
D22*
X533400Y516380D03*
X533400Y525020D03*
X508000Y516380D03*
X508000Y525020D03*
X482600Y516380D03*
X482600Y525020D03*
D21*
X109980Y558800D03*
X118620Y558800D03*
X402080Y330200D03*
X410720Y330200D03*
X287780Y508000D03*
X296420Y508000D03*
D23*
X490950Y165100D03*
X499650Y165100D03*
D24*
X478000Y86000D03*
X538000Y86000D03*
X478000Y41000D03*
X538000Y41000D03*
D25*
X330200Y156800D03*
X330200Y198800D03*
D26*
X429500Y479100D03*
X429500Y474100D03*
X429500Y469100D03*
X429500Y464100D03*
X429500Y459100D03*
X429500Y454100D03*
X429500Y449100D03*
X429500Y444100D03*
X429500Y439100D03*
X429500Y434100D03*
X429500Y429100D03*
X429500Y424100D03*
X429500Y419100D03*
X429500Y414100D03*
X429500Y409100D03*
X429500Y404100D03*
X429500Y399100D03*
X429500Y394100D03*
X429500Y389100D03*
X429500Y384100D03*
X429500Y379100D03*
X429500Y374100D03*
X429500Y369100D03*
X429500Y364100D03*
X429500Y359100D03*
D27*
X448000Y340600D03*
X453000Y340600D03*
X458000Y340600D03*
X463000Y340600D03*
X468000Y340600D03*
X473000Y340600D03*
X478000Y340600D03*
X483000Y340600D03*
X488000Y340600D03*
X493000Y340600D03*
X498000Y340600D03*
X503000Y340600D03*
X508000Y340600D03*
X513000Y340600D03*
X518000Y340600D03*
X523000Y340600D03*
X528000Y340600D03*
X533000Y340600D03*
X538000Y340600D03*
X543000Y340600D03*
X548000Y340600D03*
X553000Y340600D03*
X558000Y340600D03*
X563000Y340600D03*
X568000Y340600D03*
D26*
X586500Y359100D03*
X586500Y364100D03*
X586500Y369100D03*
X586500Y374100D03*
X586500Y379100D03*
X586500Y384100D03*
X586500Y389100D03*
X586500Y394100D03*
X586500Y399100D03*
X586500Y404100D03*
X586500Y409100D03*
X586500Y414100D03*
X586500Y419100D03*
X586500Y424100D03*
X586500Y429100D03*
X586500Y434100D03*
X586500Y439100D03*
X586500Y444100D03*
X586500Y449100D03*
X586500Y454100D03*
X586500Y459100D03*
X586500Y464100D03*
X586500Y469100D03*
X586500Y474100D03*
X586500Y479100D03*
D27*
X568000Y497600D03*
X563000Y497600D03*
X558000Y497600D03*
X553000Y497600D03*
X548000Y497600D03*
X543000Y497600D03*
X538000Y497600D03*
X533000Y497600D03*
X528000Y497600D03*
X523000Y497600D03*
X518000Y497600D03*
X513000Y497600D03*
X508000Y497600D03*
X503000Y497600D03*
X498000Y497600D03*
X493000Y497600D03*
X488000Y497600D03*
X483000Y497600D03*
X478000Y497600D03*
X473000Y497600D03*
X468000Y497600D03*
X463000Y497600D03*
X458000Y497600D03*
X453000Y497600D03*
X448000Y497600D03*
D28*
X157250Y448700D02*
X150850Y448700D01*
X157250Y448700D02*
X157250Y446700D01*
X150850Y446700D01*
X150850Y448700D01*
X150850Y448600D02*
X157250Y448600D01*
X157250Y458200D02*
X150850Y458200D01*
X157250Y458200D02*
X157250Y456200D01*
X150850Y456200D01*
X150850Y458200D01*
X150850Y458100D02*
X157250Y458100D01*
X157250Y467700D02*
X150850Y467700D01*
X157250Y467700D02*
X157250Y465700D01*
X150850Y465700D01*
X150850Y467700D01*
X150850Y467600D02*
X157250Y467600D01*
X128550Y465700D02*
X122150Y465700D01*
X122150Y467700D01*
X128550Y467700D01*
X128550Y465700D01*
X128550Y467600D02*
X122150Y467600D01*
X122150Y456200D02*
X128550Y456200D01*
X122150Y456200D02*
X122150Y458200D01*
X128550Y458200D01*
X128550Y456200D01*
X128550Y458100D02*
X122150Y458100D01*
X122150Y446700D02*
X128550Y446700D01*
X122150Y446700D02*
X122150Y448700D01*
X128550Y448700D01*
X128550Y446700D01*
X128550Y448600D02*
X122150Y448600D01*
D29*
X139700Y457200D03*
D30*
X219200Y63500D03*
X314200Y63500D03*
D31*
X424800Y279400D03*
X438800Y279400D03*
D32*
X74676Y69342D02*
X64008Y69342D01*
X63500Y68550D01*
X74676Y69342D02*
X76200Y68550D01*
X101346Y67564D02*
X101346Y58674D01*
X94234Y51562D01*
X88900Y51562D02*
X83566Y51562D01*
X88900Y51562D02*
X94234Y51562D01*
X83566Y51562D02*
X76454Y58674D01*
X76454Y67564D01*
X101346Y67564D02*
X101600Y68550D01*
X76454Y67564D02*
X76200Y68550D01*
X55118Y316484D02*
X51562Y316484D01*
X55118Y316484D02*
X71120Y300482D01*
X71120Y183134D01*
X76454Y177800D01*
X51562Y316484D02*
X50800Y317200D01*
X76454Y177800D02*
X77000Y177800D01*
X88900Y51562D02*
X88900Y37338D01*
X92456Y33782D01*
X101346Y33782D01*
X124460Y56896D01*
X124460Y131572D01*
X78232Y177800D01*
X77000Y177800D01*
X577850Y151130D02*
X577850Y138684D01*
X588518Y128016D01*
X577850Y151130D02*
X576750Y152400D01*
X588518Y128016D02*
X589450Y127000D01*
X588518Y163576D02*
X588518Y202692D01*
X588518Y163576D02*
X577850Y152908D01*
X588518Y202692D02*
X589450Y203200D01*
X577850Y152908D02*
X576750Y152400D01*
X444500Y74676D02*
X387604Y74676D01*
X444500Y74676D02*
X476504Y42672D01*
X387604Y74676D02*
X386250Y76200D01*
X476504Y42672D02*
X478000Y41000D01*
X478282Y40894D02*
X536956Y40894D01*
X538000Y41000D01*
X478282Y40894D02*
X478000Y41000D01*
X588518Y92456D02*
X588518Y126238D01*
X588518Y92456D02*
X538734Y42672D01*
X588518Y126238D02*
X589450Y127000D01*
X538734Y42672D02*
X538000Y41000D01*
X177800Y56896D02*
X124460Y56896D01*
X177800Y56896D02*
X188468Y46228D01*
X357378Y46228D01*
X385826Y74676D01*
X386250Y76200D01*
X430276Y384048D02*
X430276Y387604D01*
X430276Y384048D02*
X429500Y384100D01*
X453390Y360934D02*
X453390Y341376D01*
X453390Y360934D02*
X464058Y371602D01*
X464058Y398272D02*
X464058Y419608D01*
X464058Y394716D02*
X464058Y371602D01*
X464058Y419608D02*
X448056Y435610D01*
X437388Y435610D01*
X435610Y433832D01*
X430276Y433832D01*
X453390Y341376D02*
X453000Y340600D01*
X430276Y433832D02*
X429500Y434100D01*
X430276Y387604D02*
X453390Y387604D01*
X430276Y387604D02*
X429500Y389100D01*
X536956Y252476D02*
X536956Y234696D01*
X510286Y208026D01*
X494284Y208026D01*
X487172Y215138D01*
X536956Y252476D02*
X538650Y254000D01*
X486800Y215900D02*
X487172Y215138D01*
X563626Y321818D02*
X563626Y339598D01*
X563626Y321818D02*
X544068Y302260D01*
X544068Y259588D01*
X538734Y254254D01*
X563626Y339598D02*
X563000Y340600D01*
X538734Y254254D02*
X538650Y254000D01*
X515620Y394716D02*
X464058Y394716D01*
X515620Y394716D02*
X563626Y346710D01*
X563626Y341376D01*
X464058Y394716D02*
X464058Y398272D01*
X563000Y340600D02*
X563626Y341376D01*
X533400Y525020D02*
X533400Y596900D01*
X579628Y474726D02*
X584962Y474726D01*
X579628Y474726D02*
X576072Y478282D01*
X576072Y483616D02*
X576072Y506730D01*
X576072Y483616D02*
X576072Y478282D01*
X576072Y506730D02*
X558292Y524510D01*
X533400Y524510D01*
X584962Y474726D02*
X586500Y474100D01*
X533400Y524510D02*
X533400Y525020D01*
X453390Y496062D02*
X453390Y490728D01*
X469392Y474726D01*
X572516Y474726D01*
X576072Y478282D01*
X453390Y496062D02*
X453000Y497600D01*
X508508Y597408D02*
X533400Y597408D01*
X508508Y597408D02*
X508000Y596900D01*
X533400Y596900D02*
X533400Y597408D01*
X112014Y513842D02*
X81788Y483616D01*
X81450Y482600D01*
X170350Y533400D02*
X197358Y533400D01*
X209804Y520954D01*
X211400Y520700D01*
X81788Y456946D02*
X81788Y442722D01*
X81788Y407162D01*
X81450Y406400D01*
X81788Y456946D02*
X81450Y457200D01*
X140462Y458724D02*
X152908Y458724D01*
X154050Y457200D01*
X140462Y458724D02*
X139700Y457200D01*
X129794Y442722D02*
X81788Y442722D01*
X129794Y442722D02*
X138684Y451612D01*
X138684Y456946D01*
X139700Y457200D01*
X168910Y471170D02*
X168910Y533400D01*
X168910Y471170D02*
X154686Y456946D01*
X168910Y533400D02*
X170350Y533400D01*
X154050Y457200D02*
X154686Y456946D01*
X426720Y128016D02*
X439166Y128016D01*
X405384Y149352D02*
X403606Y151130D01*
X405384Y149352D02*
X426720Y128016D01*
X439166Y128016D02*
X439250Y127000D01*
X403606Y151130D02*
X402200Y152400D01*
X407162Y149352D02*
X435610Y177800D01*
X407162Y149352D02*
X405384Y149352D01*
X402200Y152400D01*
X428498Y184912D02*
X428498Y216916D01*
X428498Y240030D01*
X428498Y184912D02*
X435610Y177800D01*
X428498Y240030D02*
X427600Y241300D01*
X435610Y177800D02*
X437050Y177800D01*
X181356Y264922D02*
X158242Y241808D01*
X181356Y295148D02*
X181356Y304038D01*
X181356Y295148D02*
X181356Y264922D01*
X158242Y241808D02*
X157650Y241300D01*
X181356Y304038D02*
X183050Y304800D01*
X168910Y113792D02*
X163576Y108458D01*
X156464Y108458D01*
X154686Y110236D01*
X154686Y238252D01*
X156464Y240030D01*
X170350Y114300D02*
X168910Y113792D01*
X156464Y240030D02*
X157650Y241300D01*
X183134Y305816D02*
X183134Y355600D01*
X183134Y305816D02*
X183050Y304800D01*
X232918Y355600D02*
X245364Y368046D01*
X232918Y355600D02*
X183134Y355600D01*
X245364Y368046D02*
X246550Y368300D01*
X183134Y355600D02*
X183050Y355600D01*
X225806Y408940D02*
X225806Y430276D01*
X225806Y408940D02*
X245364Y389382D01*
X245364Y369824D01*
X225806Y430276D02*
X224100Y431800D01*
X245364Y369824D02*
X246550Y368300D01*
X261366Y405384D02*
X298704Y405384D01*
X261366Y405384D02*
X245364Y389382D01*
X298704Y405384D02*
X300300Y406400D01*
X279146Y304038D02*
X272034Y304038D01*
X263144Y295148D01*
X181356Y295148D01*
X279146Y304038D02*
X280200Y304800D01*
X272034Y216916D02*
X428498Y216916D01*
X272034Y216916D02*
X170688Y115570D01*
X170350Y114300D01*
X168910Y471170D02*
X184912Y471170D01*
X224028Y432054D01*
X224100Y431800D01*
X204470Y545846D02*
X204470Y595630D01*
X204470Y545846D02*
X225806Y524510D01*
X225806Y515620D01*
X224028Y513842D01*
X216916Y513842D01*
X211582Y519176D01*
X204470Y595630D02*
X203200Y596900D01*
X211400Y520700D02*
X211582Y519176D01*
X453390Y504952D02*
X453390Y497840D01*
X453390Y504952D02*
X451612Y506730D01*
X419608Y506730D01*
X376936Y464058D02*
X312928Y400050D01*
X376936Y464058D02*
X419608Y506730D01*
X312928Y400050D02*
X305816Y400050D01*
X300482Y405384D01*
X453000Y497600D02*
X453390Y497840D01*
X300300Y406400D02*
X300482Y405384D01*
X590296Y350266D02*
X590296Y204470D01*
X590296Y350266D02*
X599186Y359156D01*
X599186Y478282D01*
X593852Y483616D01*
X576072Y483616D01*
X590296Y204470D02*
X589450Y203200D01*
D33*
X453390Y387604D03*
X464058Y398272D03*
X112014Y513842D03*
X376936Y464058D03*
D32*
X174244Y355600D02*
X174244Y305816D01*
X172550Y304800D01*
X186690Y368046D02*
X234696Y368046D01*
X186690Y368046D02*
X174244Y355600D01*
X234696Y368046D02*
X236050Y368300D01*
X174244Y355600D02*
X172550Y355600D01*
X483616Y524510D02*
X506730Y524510D01*
X483616Y524510D02*
X482600Y525020D01*
X506730Y524510D02*
X508000Y525020D01*
X295148Y508508D02*
X295148Y581406D01*
X280924Y595630D01*
X295148Y508508D02*
X296420Y508000D01*
X280924Y595630D02*
X279400Y596900D01*
X469392Y524510D02*
X481838Y524510D01*
X469392Y524510D02*
X408940Y584962D01*
X400050Y584962D01*
X392938Y592074D01*
X392938Y602742D01*
X385826Y609854D01*
X293370Y609854D01*
X280924Y597408D01*
X481838Y524510D02*
X482600Y525020D01*
X280924Y597408D02*
X279400Y596900D01*
X236474Y387604D02*
X236474Y369824D01*
X236050Y368300D01*
X586740Y469392D02*
X593852Y469392D01*
X595630Y471170D01*
X595630Y476504D01*
X593852Y478282D01*
X586740Y478282D01*
X586740Y469392D02*
X586500Y469100D01*
X586740Y478282D02*
X586500Y479100D01*
X444500Y428498D02*
X430276Y428498D01*
X439166Y451612D02*
X440944Y451612D01*
X439166Y451612D02*
X437388Y453390D01*
X430276Y453390D01*
X429500Y429100D02*
X430276Y428498D01*
X430276Y453390D02*
X429500Y454100D01*
X568960Y346710D02*
X568960Y341376D01*
X568960Y346710D02*
X504952Y410718D01*
X472948Y410718D01*
X568000Y340600D02*
X568960Y341376D01*
X448056Y458724D02*
X448056Y469392D01*
X448056Y496062D01*
X448056Y458724D02*
X440944Y451612D01*
X448056Y496062D02*
X448000Y497600D01*
X448056Y469392D02*
X584962Y469392D01*
X586500Y469100D01*
X417830Y117348D02*
X376936Y76454D01*
X417830Y117348D02*
X444500Y117348D01*
X448056Y120904D01*
X448056Y126238D01*
X376936Y76454D02*
X375750Y76200D01*
X448056Y126238D02*
X449750Y127000D01*
X528066Y254254D02*
X528066Y263144D01*
X458724Y332486D01*
X458724Y339598D01*
X528066Y254254D02*
X528150Y254000D01*
X458724Y339598D02*
X458000Y340600D01*
X577850Y202692D02*
X577850Y199136D01*
X574294Y195580D01*
X529844Y240030D02*
X529844Y252476D01*
X577850Y202692D02*
X578950Y203200D01*
X529844Y252476D02*
X528150Y254000D01*
X286258Y172466D02*
X266700Y172466D01*
X266700Y173100D01*
X449834Y128016D02*
X456946Y128016D01*
X449834Y128016D02*
X449750Y127000D01*
X458724Y350266D02*
X496062Y387604D01*
X458724Y350266D02*
X458724Y341376D01*
X458000Y340600D01*
D33*
X236474Y387604D03*
X444500Y428498D03*
X440944Y451612D03*
X472948Y410718D03*
X574294Y195580D03*
X529844Y240030D03*
X286258Y172466D03*
X456946Y128016D03*
X496062Y387604D03*
D32*
X579628Y464058D02*
X584962Y464058D01*
X579628Y464058D02*
X577850Y462280D01*
X577850Y348488D01*
X584962Y341376D01*
X584962Y218694D01*
X533400Y167132D01*
X533400Y135128D01*
X55118Y129794D02*
X55118Y113792D01*
X51562Y110236D01*
X584962Y464058D02*
X586500Y464100D01*
X51562Y110236D02*
X50800Y109250D01*
D33*
X533400Y135128D03*
X55118Y129794D03*
D32*
X503174Y497840D02*
X503174Y504952D01*
X508508Y510286D01*
X512064Y510286D01*
X517398Y515620D01*
X517398Y544068D01*
X469392Y592074D01*
X469392Y602742D01*
X451612Y620522D01*
X156464Y620522D01*
X37338Y501396D01*
X37338Y168910D01*
X74676Y131572D01*
X74676Y110236D01*
X503000Y497600D02*
X503174Y497840D01*
X76200Y109250D02*
X74676Y110236D01*
X512064Y485394D02*
X512064Y496062D01*
X513000Y497600D01*
X113792Y67564D02*
X113792Y58674D01*
X96012Y40894D01*
X113792Y67564D02*
X114300Y68550D01*
D33*
X512064Y485394D03*
X96012Y40894D03*
D32*
X517398Y497840D02*
X517398Y510286D01*
X520954Y513842D01*
X520954Y558292D01*
X483616Y595630D01*
X517398Y497840D02*
X518000Y497600D01*
X483616Y595630D02*
X482600Y596900D01*
X115570Y129794D02*
X115570Y110236D01*
X114300Y109250D01*
D33*
X115570Y129794D03*
D32*
X567182Y488950D02*
X567182Y496062D01*
X567182Y488950D02*
X563626Y485394D01*
X65786Y129794D02*
X65786Y112014D01*
X64008Y110236D01*
X567182Y496062D02*
X568000Y497600D01*
X64008Y110236D02*
X63500Y109250D01*
X88900Y78232D02*
X88900Y68550D01*
X88900Y78232D02*
X74676Y92456D01*
X71120Y92456D01*
X64008Y99568D01*
X64008Y108458D01*
X63500Y109250D01*
D33*
X563626Y485394D03*
X65786Y129794D03*
D32*
X160020Y115570D02*
X323596Y279146D01*
X368046Y279146D02*
X423164Y279146D01*
X368046Y279146D02*
X323596Y279146D01*
X160020Y115570D02*
X159850Y114300D01*
X423164Y279146D02*
X424800Y279400D01*
X428498Y439166D02*
X389382Y439166D01*
X368046Y417830D01*
X368046Y279146D01*
X428498Y439166D02*
X429500Y439100D01*
X71120Y405384D02*
X71120Y341376D01*
X83566Y190246D02*
X128016Y145796D01*
X128016Y112014D01*
X190246Y49784D01*
X300482Y49784D01*
X312928Y62230D01*
X71120Y405384D02*
X70950Y406400D01*
X314200Y63500D02*
X312928Y62230D01*
X405384Y424942D02*
X428498Y424942D01*
X405384Y424942D02*
X403606Y426720D01*
X428498Y424942D02*
X429500Y424100D01*
D33*
X71120Y341376D03*
X83566Y190246D03*
X403606Y426720D03*
D32*
X401828Y378714D02*
X401828Y330708D01*
X401828Y378714D02*
X371602Y408940D01*
X371602Y416052D01*
X375158Y419608D01*
X428498Y419608D01*
X401828Y330708D02*
X402080Y330200D01*
X429500Y419100D02*
X428498Y419608D01*
X293370Y501396D02*
X288036Y506730D01*
X293370Y501396D02*
X300482Y501396D01*
X304038Y504952D01*
X304038Y595630D01*
X287780Y508000D02*
X288036Y506730D01*
X304038Y595630D02*
X304800Y596900D01*
X380492Y414274D02*
X419608Y414274D01*
X428498Y414274D01*
X380492Y414274D02*
X378714Y412496D01*
X428498Y414274D02*
X429500Y414100D01*
X565404Y151130D02*
X565404Y135128D01*
X565404Y113792D02*
X538734Y87122D01*
X565404Y151130D02*
X566250Y152400D01*
X538734Y87122D02*
X538000Y86000D01*
X536956Y87122D02*
X478282Y87122D01*
X478000Y86000D01*
X536956Y87122D02*
X538000Y86000D01*
X103124Y110236D02*
X103124Y129794D01*
X103124Y110236D02*
X101600Y109250D01*
X419608Y327152D02*
X419608Y414274D01*
X419608Y327152D02*
X485394Y261366D01*
X485394Y227584D01*
D33*
X378714Y412496D03*
X565404Y135128D03*
X565404Y113792D03*
X103124Y129794D03*
X485394Y227584D03*
D32*
X503174Y216916D02*
X503174Y273812D01*
X442722Y334264D01*
X442722Y355600D01*
X460502Y373380D01*
X460502Y391160D01*
X456946Y394716D01*
X430276Y394716D01*
X503174Y216916D02*
X503800Y215900D01*
X429500Y394100D02*
X430276Y394716D01*
X490728Y192024D02*
X490728Y165354D01*
X490728Y192024D02*
X446278Y236474D01*
X446278Y252476D01*
X446278Y369824D02*
X437388Y378714D01*
X430276Y378714D01*
X490728Y165354D02*
X490950Y165100D01*
X430276Y378714D02*
X429500Y379100D01*
X160020Y474726D02*
X160020Y533400D01*
X159850Y533400D01*
X254254Y327152D02*
X254254Y305816D01*
X253200Y304800D01*
D33*
X446278Y252476D03*
X446278Y369824D03*
X160020Y474726D03*
X254254Y327152D03*
D32*
X375158Y177800D02*
X417830Y177800D01*
X426550Y177800D01*
X375158Y177800D02*
X339598Y213360D01*
X320040Y213360D01*
X293370Y186690D01*
X293370Y168910D01*
X282702Y158242D01*
X266700Y158242D01*
X266700Y157100D01*
X499618Y165354D02*
X499618Y174244D01*
X499618Y165354D02*
X499650Y165100D01*
X437388Y373380D02*
X430276Y373380D01*
X437388Y373380D02*
X439166Y371602D01*
X439166Y316484D01*
X492506Y263144D01*
X492506Y234696D01*
X430276Y373380D02*
X429500Y374100D01*
X51562Y177800D02*
X51562Y167132D01*
X69342Y149352D01*
X96012Y149352D01*
X256032Y149352D02*
X259588Y149352D01*
X266700Y156464D01*
X51562Y177800D02*
X50000Y177800D01*
X266700Y157100D02*
X266700Y156464D01*
D33*
X499618Y174244D03*
X417830Y177800D03*
X492506Y234696D03*
X96012Y149352D03*
X256032Y149352D03*
D32*
X334264Y152908D02*
X343154Y152908D01*
X384048Y152908D01*
X334264Y152908D02*
X330708Y156464D01*
X384048Y152908D02*
X385200Y152400D01*
X330708Y156464D02*
X330200Y156800D01*
X71120Y483616D02*
X94234Y506730D01*
X71120Y483616D02*
X70950Y482600D01*
X115570Y456946D02*
X124460Y448056D01*
X125350Y447700D01*
X145796Y439166D02*
X152908Y446278D01*
X154050Y447700D01*
X51562Y67564D02*
X51562Y48006D01*
X51562Y67564D02*
X50800Y68550D01*
X343154Y152908D02*
X343154Y183134D01*
D33*
X94234Y506730D03*
X115570Y456946D03*
X145796Y439166D03*
X51562Y48006D03*
X343154Y183134D03*
D32*
X56896Y344932D02*
X51562Y344932D01*
X56896Y344932D02*
X65786Y353822D01*
X65786Y524510D01*
X151130Y609854D01*
X215138Y609854D01*
X227584Y597408D01*
X51562Y344932D02*
X50800Y343200D01*
X227584Y597408D02*
X228600Y596900D01*
X328930Y197358D02*
X236474Y104902D01*
X154686Y104902D01*
X131572Y128016D01*
X131572Y241808D01*
X74676Y298704D01*
X74676Y327152D01*
X56896Y344932D01*
X328930Y197358D02*
X330200Y198800D01*
X56896Y344932D02*
X50800Y343200D01*
X71120Y458724D02*
X78232Y465836D01*
X119126Y465836D02*
X124460Y465836D01*
X119126Y465836D02*
X103124Y465836D01*
X78232Y465836D01*
X71120Y458724D02*
X70950Y457200D01*
X124460Y465836D02*
X125350Y466700D01*
X119126Y465836D02*
X119126Y558292D01*
X118620Y558800D01*
X296926Y241808D02*
X408940Y241808D01*
X410600Y241300D01*
D33*
X296926Y241808D03*
X103124Y465836D03*
D32*
X218694Y520954D02*
X218694Y522732D01*
X176022Y565404D01*
X115570Y565404D01*
X110236Y560070D01*
X218694Y520954D02*
X220400Y520700D01*
X109980Y558800D02*
X110236Y560070D01*
X517398Y128016D02*
X577850Y128016D01*
X478282Y167132D02*
X437388Y208026D01*
X478282Y167132D02*
X517398Y128016D01*
X437388Y208026D02*
X437388Y266700D01*
X432054Y272034D01*
X432054Y309372D01*
X412496Y328930D01*
X577850Y128016D02*
X578950Y127000D01*
X412496Y328930D02*
X410720Y330200D01*
X272034Y64008D02*
X220472Y64008D01*
X272034Y64008D02*
X328930Y120904D01*
X442722Y120904D01*
X444500Y122682D01*
X444500Y133350D01*
X478282Y167132D01*
X220472Y64008D02*
X219200Y63500D01*
X147574Y241808D02*
X174244Y268478D01*
X216916Y311150D02*
X227584Y311150D01*
X312928Y396494D01*
X341376Y396494D01*
X389382Y444500D01*
X428498Y444500D01*
X147574Y241808D02*
X147150Y241300D01*
X428498Y444500D02*
X429500Y444100D01*
X439166Y279146D02*
X439166Y270256D01*
X478282Y231140D01*
X478282Y209804D01*
X483616Y204470D01*
X512064Y204470D01*
X554736Y247142D01*
X554736Y273812D01*
X581406Y300482D01*
X581406Y339598D01*
X476504Y444500D01*
X430276Y444500D01*
X438800Y279400D02*
X439166Y279146D01*
X429500Y444100D02*
X430276Y444500D01*
D33*
X174244Y268478D03*
X216916Y311150D03*
D32*
X533400Y515620D02*
X561848Y515620D01*
X572516Y504952D01*
X572516Y483616D01*
X567182Y478282D01*
X481838Y478282D01*
X478282Y481838D01*
X478282Y496062D01*
X533400Y515620D02*
X533400Y516380D01*
X478000Y497600D02*
X478282Y496062D01*
X339598Y595630D02*
X330708Y595630D01*
X339598Y595630D02*
X424942Y510286D01*
X472948Y510286D01*
X478282Y504952D01*
X478282Y497840D01*
X330708Y595630D02*
X330200Y596900D01*
X478000Y497600D02*
X478282Y497840D01*
X508508Y517398D02*
X510286Y517398D01*
X513842Y520954D01*
X513842Y529844D01*
X458724Y584962D01*
X426720Y584962D01*
X419608Y592074D01*
X419608Y600964D01*
X410718Y609854D01*
X396494Y609854D01*
X508508Y517398D02*
X508000Y516380D01*
X483616Y496062D02*
X483616Y487172D01*
X485394Y485394D01*
X499618Y512064D02*
X503174Y512064D01*
X506730Y515620D01*
X483000Y497600D02*
X483616Y496062D01*
X506730Y515620D02*
X508000Y516380D01*
D33*
X396494Y609854D03*
X485394Y485394D03*
X499618Y512064D03*
D32*
X483616Y508508D02*
X483616Y515620D01*
X483616Y508508D02*
X487172Y504952D01*
X487172Y497840D01*
X483616Y515620D02*
X482600Y516380D01*
X487172Y497840D02*
X488000Y497600D01*
X481838Y517398D02*
X471170Y517398D01*
X407162Y581406D01*
X396494Y581406D01*
X381000Y596900D01*
X481838Y517398D02*
X482600Y516380D01*
X567182Y305816D02*
X574294Y305816D01*
X567182Y305816D02*
X567180Y304800D01*
X574294Y305816D02*
X575820Y304800D01*
X565404Y305816D02*
X558292Y305816D01*
X506730Y328930D02*
X503174Y332486D01*
X503174Y339598D01*
X565404Y305816D02*
X567180Y304800D01*
X503174Y339598D02*
X503000Y340600D01*
X309372Y407162D02*
X309372Y499618D01*
X309372Y407162D02*
X309300Y406400D01*
X472948Y531622D02*
X407162Y597408D01*
X406400Y596900D01*
D33*
X558292Y305816D03*
X506730Y328930D03*
X309372Y499618D03*
X472948Y531622D03*
D32*
X529844Y305816D02*
X536956Y305816D01*
X529844Y305816D02*
X529080Y304800D01*
X536956Y305816D02*
X537720Y304800D01*
X528066Y305816D02*
X528066Y318262D01*
X513842Y332486D01*
X513842Y339598D01*
X528066Y305816D02*
X529080Y304800D01*
X513842Y339598D02*
X513000Y340600D01*
X234696Y432054D02*
X234696Y560070D01*
X266700Y592074D01*
X266700Y602742D01*
X280924Y616966D01*
X410718Y616966D01*
X430276Y597408D01*
X234696Y432054D02*
X233100Y431800D01*
X430276Y597408D02*
X431800Y596900D01*
X512064Y360934D02*
X512064Y341376D01*
X513000Y340600D01*
D33*
X512064Y360934D03*
M02*
