G04 EAGLE Gerber RS-274X export*
G75*
%MOMM*%
%FSLAX34Y34*%
%LPD*%
%INCopper Layer 15*%
%IPPOS*%
%AMOC8*
5,1,8,0,0,1.08239X$1,22.5*%
G01*
%ADD10C,1.524000*%
%ADD11C,0.756400*%


D10*
X203200Y596900D03*
X228600Y596900D03*
X254000Y596900D03*
X279400Y596900D03*
X304800Y596900D03*
X330200Y596900D03*
X355600Y596900D03*
X381000Y596900D03*
X406400Y596900D03*
X431800Y596900D03*
X457200Y596900D03*
X482600Y596900D03*
X508000Y596900D03*
X533400Y596900D03*
D11*
X453390Y387604D03*
X464058Y398272D03*
X112014Y513842D03*
X376936Y464058D03*
X236474Y387604D03*
X444500Y428498D03*
X440944Y451612D03*
X472948Y410718D03*
X574294Y195580D03*
X529844Y240030D03*
X286258Y172466D03*
X456946Y128016D03*
X496062Y387604D03*
X533400Y135128D03*
X55118Y129794D03*
X512064Y485394D03*
X96012Y40894D03*
X115570Y129794D03*
X563626Y485394D03*
X65786Y129794D03*
X71120Y341376D03*
X83566Y190246D03*
X403606Y426720D03*
X378714Y412496D03*
X565404Y135128D03*
X565404Y113792D03*
X103124Y129794D03*
X485394Y227584D03*
X446278Y252476D03*
X446278Y369824D03*
X160020Y474726D03*
X254254Y327152D03*
X499618Y174244D03*
X417830Y177800D03*
X492506Y234696D03*
X96012Y149352D03*
X256032Y149352D03*
X94234Y506730D03*
X115570Y456946D03*
X145796Y439166D03*
X51562Y48006D03*
X343154Y183134D03*
X296926Y241808D03*
X103124Y465836D03*
X174244Y268478D03*
X216916Y311150D03*
X396494Y609854D03*
X485394Y485394D03*
X499618Y512064D03*
X558292Y305816D03*
X506730Y328930D03*
X309372Y499618D03*
X472948Y531622D03*
X512064Y360934D03*
M02*
