G04 EAGLE Gerber RS-274X export*
G75*
%MOMM*%
%FSLAX34Y34*%
%LPD*%
%IN*%
%IPPOS*%
%AMOC8*
5,1,8,0,0,1.08239X$1,22.5*%
G01*
%ADD10C,0.254000*%


D10*
X0Y0D02*
X635000Y0D01*
X635000Y635000D01*
X0Y635000D01*
X0Y0D01*
X49550Y88614D02*
X49486Y88044D01*
X49358Y87486D01*
X49169Y86945D01*
X48921Y86429D01*
X48616Y85944D01*
X48259Y85496D01*
X47854Y85091D01*
X47406Y84734D01*
X46921Y84429D01*
X46405Y84181D01*
X45864Y83992D01*
X45306Y83864D01*
X44736Y83800D01*
X44164Y83800D01*
X43594Y83864D01*
X43036Y83992D01*
X42495Y84181D01*
X41979Y84429D01*
X41494Y84734D01*
X41046Y85091D01*
X40641Y85496D01*
X40284Y85944D01*
X39979Y86429D01*
X39731Y86945D01*
X39542Y87486D01*
X39414Y88044D01*
X39350Y88614D01*
X39350Y89186D01*
X39414Y89756D01*
X39542Y90314D01*
X39731Y90855D01*
X39979Y91371D01*
X40284Y91856D01*
X40641Y92304D01*
X41046Y92709D01*
X41494Y93066D01*
X41979Y93371D01*
X42495Y93619D01*
X43036Y93808D01*
X43594Y93936D01*
X44164Y94000D01*
X44736Y94000D01*
X45306Y93936D01*
X45864Y93808D01*
X46405Y93619D01*
X46921Y93371D01*
X47406Y93066D01*
X47854Y92709D01*
X48259Y92304D01*
X48616Y91856D01*
X48921Y91371D01*
X49169Y90855D01*
X49358Y90314D01*
X49486Y89756D01*
X49550Y89186D01*
X49550Y88614D01*
X113050Y88614D02*
X112986Y88044D01*
X112858Y87486D01*
X112669Y86945D01*
X112421Y86429D01*
X112116Y85944D01*
X111759Y85496D01*
X111354Y85091D01*
X110906Y84734D01*
X110421Y84429D01*
X109905Y84181D01*
X109364Y83992D01*
X108806Y83864D01*
X108236Y83800D01*
X107664Y83800D01*
X107094Y83864D01*
X106536Y83992D01*
X105995Y84181D01*
X105479Y84429D01*
X104994Y84734D01*
X104546Y85091D01*
X104141Y85496D01*
X103784Y85944D01*
X103479Y86429D01*
X103231Y86945D01*
X103042Y87486D01*
X102914Y88044D01*
X102850Y88614D01*
X102850Y89186D01*
X102914Y89756D01*
X103042Y90314D01*
X103231Y90855D01*
X103479Y91371D01*
X103784Y91856D01*
X104141Y92304D01*
X104546Y92709D01*
X104994Y93066D01*
X105479Y93371D01*
X105995Y93619D01*
X106536Y93808D01*
X107094Y93936D01*
X107664Y94000D01*
X108236Y94000D01*
X108806Y93936D01*
X109364Y93808D01*
X109905Y93619D01*
X110421Y93371D01*
X110906Y93066D01*
X111354Y92709D01*
X111759Y92304D01*
X112116Y91856D01*
X112421Y91371D01*
X112669Y90855D01*
X112858Y90314D01*
X112986Y89756D01*
X113050Y89186D01*
X113050Y88614D01*
M02*
